<?xml version="1.0" standalone="no"?>
<!DOCTYPE svg PUBLIC "-//W3C//DTD SVG 20010904//EN"
 "http://www.w3.org/TR/2001/REC-SVG-20010904/DTD/svg10.dtd">
<svg version="1.0" xmlns="http://www.w3.org/2000/svg"
 width="954.000000pt" height="417.000000pt" viewBox="0 0 954.000000 417.000000"
 preserveAspectRatio="xMidYMid meet">
<metadata>
Created by potrace 1.16, written by Peter Selinger 2001-2019
</metadata>
<g transform="translate(0.000000,417.000000) scale(0.100000,-0.100000)"
fill="#000000" stroke="none">
<path d="M0 2085 l0 -2085 4770 0 4770 0 0 2085 0 2085 -4770 0 -4770 0 0
-2085z m9470 1765 l0 -230 -730 0 -730 0 0 230 0 230 730 0 730 0 0 -230z
m-8860 -11 l0 -219 -95 0 -95 0 0 107 0 107 -38 -37 -38 -37 -37 37 -37 38 0
-108 0 -107 -95 0 -95 0 0 220 0 220 94 0 94 0 37 -45 37 -45 42 47 43 48 92
-3 91 -3 0 -220z m1020 0 l0 -219 -77 0 -78 1 -40 62 -40 62 -3 -62 -3 -63
-99 0 -100 0 0 220 0 220 73 0 72 -1 45 -64 c24 -35 48 -61 52 -59 5 3 8 33 8
67 l0 62 95 -3 95 -3 0 -220z m817 215 c18 -3 48 -20 68 -38 31 -29 35 -39 35
-82 0 -32 -7 -57 -19 -73 -18 -24 -18 -25 14 -95 18 -39 36 -88 39 -108 l7
-38 -99 0 -98 0 -12 60 c-12 57 -39 100 -62 100 -6 0 -10 -33 -10 -80 l0 -80
-100 0 -100 0 0 218 c0 120 3 221 6 225 6 6 278 -1 331 -9z m3241 0 c62 -8
112 -59 112 -117 0 -23 -8 -55 -19 -72 -18 -30 -18 -31 4 -75 22 -45 38 -89
49 -142 l6 -28 -99 0 -98 0 -12 61 c-11 56 -38 99 -61 99 -6 0 -10 -33 -10
-80 l0 -80 -100 0 -100 0 0 225 0 225 143 -6 c78 -3 161 -7 185 -10z m-4666
-30 c169 -118 101 -383 -103 -401 -76 -7 -136 15 -184 68 -46 51 -55 76 -55
151 0 69 17 112 63 156 54 52 84 63 164 60 61 -3 78 -8 115 -34z m1038 -64 l0
-100 -50 0 -50 0 0 -120 0 -120 -95 0 -95 0 0 119 0 120 -42 3 -43 3 -3 98 -3
97 191 0 190 0 0 -100z m940 45 l0 -55 -85 0 -85 0 0 -30 0 -30 60 0 60 0 0
-50 0 -50 -60 0 -60 0 0 -30 0 -30 85 0 85 0 0 -55 0 -55 -185 0 -185 0 0 220
0 220 185 0 185 0 0 -55z m241 -60 c4 -111 14 -146 38 -131 7 5 11 51 11 127
l0 119 102 0 101 0 -6 -137 c-6 -114 -11 -145 -31 -189 -70 -153 -317 -150
-384 5 -10 25 -17 81 -20 179 l-5 142 96 0 95 0 3 -115z m519 -105 l0 -220
-100 0 -100 0 0 220 0 220 100 0 100 0 0 -220z m270 55 l0 -165 91 0 92 0 -7
-31 c-3 -17 -6 -42 -6 -55 l0 -24 -180 0 -180 0 0 220 0 220 95 0 95 0 0 -165z
m753 147 c15 -13 14 -19 -5 -70 -11 -32 -22 -58 -23 -60 -2 -2 -21 8 -43 23
-41 27 -92 31 -99 8 -2 -6 32 -30 77 -54 92 -48 115 -75 115 -136 0 -34 -6
-48 -35 -78 -19 -19 -50 -40 -70 -45 -71 -20 -279 -6 -295 20 -5 8 34 130 41
130 2 0 22 -12 43 -26 40 -26 81 -29 89 -7 2 7 -18 25 -44 40 -26 16 -62 42
-81 60 -28 26 -33 38 -33 76 0 52 33 100 85 123 40 19 255 15 278 -4z m258
-97 c4 -111 14 -146 38 -131 7 5 11 51 11 127 l0 119 102 0 101 0 -6 -137 c-6
-114 -11 -145 -31 -189 -70 -153 -317 -150 -384 5 -10 25 -17 81 -20 179 l-5
142 96 0 95 0 3 -115z m1239 -105 l0 -220 -100 0 -100 0 0 220 0 220 100 0
100 0 0 -220z m270 55 l0 -165 91 0 92 0 -7 -31 c-3 -17 -6 -42 -6 -55 l0 -24
-180 0 -180 0 0 220 0 220 95 0 95 0 0 -165z m410 0 l0 -165 86 0 85 0 -3 -52
-3 -53 -177 -3 -178 -2 0 220 0 220 95 0 95 0 0 -165z m578 113 l-3 -53 -88
-3 -88 -3 3 -27 c3 -25 6 -27 61 -30 l57 -3 0 -49 0 -50 -60 0 -60 0 0 -30 0
-30 90 0 90 0 0 -55 0 -55 -185 0 -185 0 0 220 0 220 186 0 185 0 -3 -52z
m-1143 -518 c116 -6 266 -17 335 -25 238 -29 624 -119 757 -176 l43 -18 -94
-273 c-204 -593 -257 -743 -265 -751 -4 -4 -44 35 -89 86 -157 181 -320 291
-527 353 -83 25 -316 27 -360 2 -88 -48 -128 -144 -91 -217 38 -72 142 -129
521 -286 258 -106 485 -216 586 -284 101 -67 225 -199 271 -287 77 -148 116
-345 104 -521 -39 -555 -405 -880 -1116 -988 -142 -22 -660 -31 -875 -16 -363
26 -780 110 -1048 211 -53 20 -57 23 -51 48 23 97 330 1051 343 1065 4 4 37
-30 74 -76 207 -262 494 -427 742 -427 92 0 134 11 183 48 71 52 92 135 52
211 -37 74 -124 127 -390 241 -247 106 -444 207 -531 272 -154 116 -272 283
-321 454 -19 69 -22 102 -22 254 0 149 4 189 23 269 58 233 165 400 346 534
90 67 259 153 380 192 162 53 440 97 680 108 33 2 76 4 95 5 19 1 130 -3 245
-8z m-4642 -338 c136 -158 269 -311 295 -341 l48 -54 205 234 c112 129 246
282 298 342 l93 107 714 0 714 0 -2 -1657 -3 -1658 -730 0 -730 0 -3 823 c-1
452 -5 822 -10 822 -4 -1 -128 -140 -276 -310 -148 -170 -272 -308 -275 -306
-4 3 -123 139 -266 305 l-260 300 -3 -165 -2 -165 -93 -45 c-182 -87 -280 -85
-633 12 -213 59 -252 67 -354 71 -71 3 -138 1 -173 -6 -78 -17 -171 -65 -207
-109 l-30 -37 0 1063 0 1062 718 -1 717 0 248 -287z m7715 -1400 l2 -1672
-730 0 -730 0 0 1675 0 1675 728 -2 727 -3 3 -1673z m-8833 -605 c44 -13 148
-45 230 -71 215 -68 280 -80 405 -73 119 5 186 26 250 77 l40 32 0 -165 0
-164 -47 -26 c-102 -54 -262 -78 -398 -57 -43 7 -171 38 -285 70 -255 72 -330
84 -462 77 -137 -7 -198 -27 -254 -83 l-44 -44 2 177 3 177 82 43 c45 24 101
48 125 53 75 16 263 4 353 -23z m60 -641 c412 -114 390 -109 530 -110 146 0
209 14 288 63 l47 31 0 -160 0 -160 -40 -25 c-66 -42 -135 -64 -230 -75 -114
-13 -205 4 -471 89 -238 75 -280 84 -414 85 -144 1 -227 -25 -292 -91 l-43
-45 0 175 0 174 71 32 c120 54 160 61 299 57 104 -4 146 -10 255 -40z"/>
<path d="M2310 3930 c0 -33 3 -41 16 -38 9 2 22 11 28 21 13 20 -2 50 -28 55
-13 3 -16 -5 -16 -38z"/>
<path d="M5560 3930 c0 -33 3 -41 16 -38 9 2 22 11 28 21 13 20 -2 50 -28 55
-13 3 -16 -5 -16 -38z"/>
<path d="M876 3887 c-38 -27 2 -96 42 -71 24 16 27 42 6 65 -20 23 -25 23 -48
6z"/>
<path d="M8903 3306 c-58 -14 -124 -55 -152 -94 l-18 -25 -51 41 c-70 55 -110
67 -222 67 -125 0 -187 -21 -257 -88 -40 -37 -58 -65 -77 -115 -24 -65 -25
-78 -31 -414 l-7 -348 646 0 646 0 -1 138 c-1 265 -17 627 -28 665 -17 54
-105 140 -166 161 -66 23 -215 29 -282 12z m118 -426 c22 -12 49 -61 49 -90 0
-19 -6 -20 -120 -20 l-120 0 0 26 c0 35 16 61 48 78 31 18 115 21 143 6z
m-473 -16 c12 -8 29 -29 38 -46 22 -42 10 -48 -108 -48 l-98 0 0 26 c0 34 17
63 43 74 35 14 101 11 125 -6z"/>
<path d="M9195 2215 c-88 -24 -335 -89 -550 -145 -214 -56 -424 -110 -466
-121 l-76 -20 -6 -302 c-3 -166 -4 -303 -2 -305 4 -4 373 -102 740 -196 318
-82 406 -106 425 -117 9 -5 -32 -9 -102 -9 l-118 0 0 -185 0 -185 -475 0 -475
0 0 -215 0 -215 646 0 647 0 -7 52 c-3 29 -6 305 -6 613 l0 560 -97 26 -98 25
-3 147 -3 146 38 10 c21 5 68 17 106 27 l67 16 0 77 c0 124 -13 361 -19 360
-3 0 -78 -20 -166 -44z m-355 -595 c0 -40 -4 -60 -12 -60 -19 0 -182 51 -191
60 -8 7 13 15 133 48 68 19 70 18 70 -48z"/>
</g>
</svg>
